<?xml version="1.0" encoding="UTF-8" standalone="no"?>
<svg
   xmlns:dc="http://purl.org/dc/elements/1.1/"
   xmlns:cc="http://creativecommons.org/ns#"
   xmlns:rdf="http://www.w3.org/1999/02/22-rdf-syntax-ns#"
   xmlns:svg="http://www.w3.org/2000/svg"
   xmlns="http://www.w3.org/2000/svg"
   xmlns:sodipodi="http://sodipodi.sourceforge.net/DTD/sodipodi-0.dtd"
   xmlns:inkscape="http://www.inkscape.org/namespaces/inkscape"
   viewBox="0 0 151 24"
   version="1.1"
   id="svg25"
   sodipodi:docname="pinholingo-logo.svg"
   width="151"
   height="24"
   inkscape:version="0.92.4 (5da689c313, 2019-01-14)">
  <metadata
     id="metadata29">
    <rdf:RDF>
      <cc:Work
         rdf:about="">
        <dc:format>image/svg+xml</dc:format>
        <dc:type
           rdf:resource="http://purl.org/dc/dcmitype/StillImage" />
        <dc:title>Logo</dc:title>
      </cc:Work>
    </rdf:RDF>
  </metadata>
  <sodipodi:namedview
     pagecolor="#ffffff"
     bordercolor="#666666"
     borderopacity="1"
     objecttolerance="10"
     gridtolerance="10"
     guidetolerance="10"
     inkscape:pageopacity="0"
     inkscape:pageshadow="2"
     inkscape:window-width="934"
     inkscape:window-height="1897"
     id="namedview27"
     showgrid="false"
     inkscape:zoom="1.6055046"
     inkscape:cx="80.22407"
     inkscape:cy="-33.751025"
     inkscape:window-x="-8"
     inkscape:window-y="-8"
     inkscape:window-maximized="1"
     inkscape:current-layer="svg25" />
  <title
     id="title2">Logo</title>
  <defs
     id="defs23">
    <path
       id="b"
       d="M 22.735,23.171 C 23.018,23.494 22.788,24 22.359,24 h -5.907 c -0.285,0 -0.556,-0.121 -0.745,-0.333 L 6.293,13.141 v 10.36 c 0,0.276 -0.224,0.5 -0.5,0.5 H 0.5 c -0.276,0 -0.5,-0.224 -0.5,-0.5 v -23 c 0,-0.276 0.224,-0.5 0.5,-0.5 h 5.293 c 0.276,0 0.5,0.224 0.5,0.5 v 9.815 l 9.141,-9.99 c 0.19,-0.207 0.457,-0.325 0.738,-0.325 h 5.762 c 0.437,0 0.664,0.521 0.366,0.841 l -9.851,10.563 10.287,11.767 z"
       inkscape:connector-curvature="0" />
    <path
       id="c"
       d="m 45.991,24 c -0.199,0 -0.38,-0.118 -0.459,-0.301 L 43.508,19.03 h -10.67 l -2.024,4.669 C 30.735,23.882 30.555,24 30.355,24 h -5.212 c -0.366,0 -0.608,-0.381 -0.453,-0.712 l 10.782,-23 C 35.554,0.112 35.731,0 35.925,0 h 4.358 c 0.194,0 0.37,0.112 0.453,0.287 l 10.815,23 C 51.707,23.619 51.465,24 51.099,24 Z M 34.856,14.332 h 6.635 l -3.317,-7.694 -3.317,7.694 z"
       inkscape:connector-curvature="0" />
    <path
       id="d"
       d="m 55.525,24 c -0.276,0 -0.5,-0.224 -0.5,-0.5 v -23 c 0,-0.276 0.224,-0.5 0.5,-0.5 h 5.293 c 0.276,0 0.5,0.224 0.5,0.5 v 18.428 h 9.759 c 0.276,0 0.5,0.224 0.5,0.5 V 23.5 c 0,0.276 -0.224,0.5 -0.5,0.5 z"
       inkscape:connector-curvature="0" />
    <path
       id="e"
       d="m 75.279,0.5 c 0,-0.276 0.224,-0.5 0.5,-0.5 h 9.315 c 2.667,0 4.959,0.477 6.874,1.43 1.938,0.953 3.42,2.338 4.446,4.153 1.026,1.793 1.539,3.926 1.539,6.4 0,2.496 -0.513,4.652 -1.539,6.468 -1.003,1.793 -2.474,3.166 -4.412,4.119 C 90.087,23.523 87.784,24 85.094,24 h -9.315 c -0.276,0 -0.5,-0.224 -0.5,-0.5 z m 9.37,18.462 c 2.371,0 4.138,-0.579 5.301,-1.736 1.163,-1.157 1.744,-2.905 1.744,-5.242 C 91.694,9.646 91.113,7.91 89.95,6.775 88.787,5.618 87.02,5.039 84.649,5.039 h -3.078 v 13.923 z"
       inkscape:connector-curvature="0" />
    <path
       id="f"
       d="m 102.913,24 c -0.276,0 -0.5,-0.224 -0.5,-0.5 v -23 c 0,-0.276 0.224,-0.5 0.5,-0.5 h 5.293 c 0.276,0 0.5,0.224 0.5,0.5 v 23 c 0,0.276 -0.224,0.5 -0.5,0.5 z"
       inkscape:connector-curvature="0" />
  </defs>
  <path
     style="font-style:normal;font-weight:normal;font-size:22.50490761px;line-height:1.25;font-family:sans-serif;letter-spacing:0px;word-spacing:0px;fill:#ff6600;fill-opacity:1;stroke:none;stroke-width:0.56262273"
     d="M 14.388672 2.1757812 L 14.388672 4.7363281 L 16.410156 4.7363281 L 16.410156 2.1757812 L 14.388672 2.1757812 z M 34.839844 2.1757812 L 34.839844 19.275391 L 36.871094 19.275391 L 36.871094 12.320312 C 36.871094 11.118879 37.186386 10.168609 37.816406 9.4726562 C 38.446426 8.7767037 39.306891 8.4296875 40.398438 8.4296875 C 41.306839 8.4296875 41.989159 8.7181355 42.443359 9.296875 C 42.89756 9.8756145 43.125 10.747305 43.125 11.912109 L 43.125 19.275391 L 45.146484 19.275391 L 45.146484 11.847656 C 45.146484 10.148067 44.78385 8.8620065 44.058594 7.9902344 C 43.333338 7.1111364 42.263492 6.671875 40.849609 6.671875 C 39.992489 6.671875 39.233542 6.8544123 38.574219 7.2207031 C 37.922221 7.5869939 37.354598 8.1389988 36.871094 8.8789062 L 36.871094 2.1757812 L 34.839844 2.1757812 z M 62.958984 2.1757812 L 62.958984 19.275391 L 64.980469 19.275391 L 64.980469 2.1757812 L 62.958984 2.1757812 z M 69.201172 2.1757812 L 69.201172 4.7363281 L 71.222656 4.7363281 L 71.222656 2.1757812 L 69.201172 2.1757812 z M 132.63867 2.1757812 L 132.63867 8.8359375 C 132.21377 8.1033559 131.67544 7.5606236 131.02344 7.2089844 C 130.37877 6.8500194 129.60176 6.671875 128.69336 6.671875 C 127.20622 6.671875 125.99435 7.2643896 125.05664 8.4511719 C 124.12626 9.6379541 123.66016 11.198797 123.66016 13.132812 C 123.66016 15.066828 124.12626 16.627671 125.05664 17.814453 C 125.99435 19.001235 127.20622 19.59375 128.69336 19.59375 C 129.60176 19.59375 130.37877 19.418045 131.02344 19.066406 C 131.67544 18.707441 132.21377 18.162269 132.63867 17.429688 L 132.63867 19.275391 L 134.66016 19.275391 L 134.66016 2.1757812 L 132.63867 2.1757812 z M 5.9941406 6.671875 C 5.0930652 6.671875 4.3160601 6.8500194 3.6640625 7.2089844 C 3.0193907 7.5606236 2.4834911 8.1033559 2.0585938 8.8359375 L 2.0585938 6.96875 L 0.02734375 6.96875 L 0.02734375 23.957031 L 2.0585938 23.957031 L 2.0585938 17.429688 C 2.4834911 18.162269 3.0193907 18.707441 3.6640625 19.066406 C 4.3160601 19.418045 5.0930652 19.59375 5.9941406 19.59375 C 7.4886071 19.59375 8.7004807 19.001235 9.6308594 17.814453 C 10.568564 16.627671 11.037109 15.066828 11.037109 13.132812 C 11.037109 11.198797 10.568564 9.6379541 9.6308594 8.4511719 C 8.7004807 7.2643896 7.4886071 6.671875 5.9941406 6.671875 z M 26.564453 6.671875 C 25.707333 6.671875 24.948386 6.8544123 24.289062 7.2207031 C 23.637065 7.5869939 23.069441 8.1389988 22.585938 8.8789062 L 22.585938 6.96875 L 20.552734 6.96875 L 20.552734 19.275391 L 22.585938 19.275391 L 22.585938 12.320312 C 22.585938 11.118879 22.90123 10.168609 23.53125 9.4726562 C 24.16127 8.7767037 25.021735 8.4296875 26.113281 8.4296875 C 27.021682 8.4296875 27.704003 8.7181355 28.158203 9.296875 C 28.612404 9.8756145 28.839844 10.747305 28.839844 11.912109 L 28.839844 19.275391 L 30.861328 19.275391 L 30.861328 11.847656 C 30.861328 10.148067 30.498693 8.8620065 29.773438 7.9902344 C 29.048182 7.1111364 27.978336 6.671875 26.564453 6.671875 z M 53.970703 6.671875 C 52.205181 6.671875 50.820043 7.2419383 49.816406 8.3847656 C 48.820095 9.527593 48.322266 11.110887 48.322266 13.132812 C 48.322266 15.147412 48.820095 16.728753 49.816406 17.878906 C 50.820043 19.021734 52.205181 19.59375 53.970703 19.59375 C 55.728899 19.59375 57.109644 19.021734 58.113281 17.878906 C 59.116918 16.728753 59.619141 15.147412 59.619141 13.132812 C 59.619141 11.110887 59.116918 9.527593 58.113281 8.3847656 C 57.109644 7.2419383 55.728899 6.671875 53.970703 6.671875 z M 81.376953 6.671875 C 80.519833 6.671875 79.760886 6.8544123 79.101562 7.2207031 C 78.449565 7.5869939 77.881941 8.1389988 77.398438 8.8789062 L 77.398438 6.96875 L 75.365234 6.96875 L 75.365234 19.275391 L 77.398438 19.275391 L 77.398438 12.320312 C 77.398438 11.118879 77.71373 10.168609 78.34375 9.4726562 C 78.97377 8.7767037 79.834235 8.4296875 80.925781 8.4296875 C 81.834182 8.4296875 82.514549 8.7181355 82.96875 9.296875 C 83.422951 9.8756145 83.650391 10.747305 83.650391 11.912109 L 83.650391 19.275391 L 85.671875 19.275391 L 85.671875 11.847656 C 85.671875 10.148067 85.30924 8.8620065 84.583984 7.9902344 C 83.858729 7.1111364 82.790836 6.671875 81.376953 6.671875 z M 93.880859 6.671875 C 92.371741 6.671875 91.155475 7.2463312 90.232422 8.3964844 C 89.309369 9.5466375 88.847656 11.073803 88.847656 12.978516 C 88.847656 14.875902 89.309369 16.400628 90.232422 17.550781 C 91.155475 18.700934 92.371741 19.275391 93.880859 19.275391 C 94.789261 19.275391 95.570659 19.095293 96.222656 18.736328 C 96.874654 18.377363 97.4086 17.836584 97.826172 17.111328 L 97.826172 18.111328 C 97.826172 19.510559 97.497214 20.553561 96.837891 21.242188 C 96.178567 21.93814 95.185348 22.285156 93.859375 22.285156 C 93.258658 22.285156 92.668583 22.20853 92.089844 22.054688 C 91.511104 21.900845 90.925422 21.664133 90.332031 21.341797 L 90.332031 23.308594 C 90.925422 23.528368 91.537949 23.688454 92.167969 23.791016 C 92.797989 23.900903 93.46713 23.957031 94.177734 23.957031 C 96.097098 23.957031 97.522746 23.443583 98.453125 22.417969 C 99.383504 21.39968 99.847656 19.84323 99.847656 17.748047 L 99.847656 6.96875 L 97.826172 6.96875 L 97.826172 8.8359375 C 97.4086 8.1106817 96.874654 7.5679494 96.222656 7.2089844 C 95.570659 6.8500194 94.789261 6.671875 93.880859 6.671875 z M 108.78125 6.671875 C 107.01573 6.671875 105.63254 7.2419383 104.62891 8.3847656 C 103.6326 9.527593 103.13477 11.110887 103.13477 13.132812 C 103.13477 15.147412 103.6326 16.728753 104.62891 17.878906 C 105.63254 19.021734 107.01573 19.59375 108.78125 19.59375 C 110.53945 19.59375 111.92019 19.021734 112.92383 17.878906 C 113.92746 16.728753 114.42969 15.147412 114.42969 13.132812 C 114.42969 11.110887 113.92746 9.527593 112.92383 8.3847656 C 111.92019 7.2419383 110.53945 6.671875 108.78125 6.671875 z M 143.97852 6.671875 C 142.13241 6.671875 140.66381 7.2643896 139.57227 8.4511719 C 138.48804 9.6306283 137.94531 11.227588 137.94531 13.242188 C 137.94531 15.190855 138.51733 16.736079 139.66016 17.878906 C 140.81031 19.021734 142.36676 19.59375 144.33008 19.59375 C 145.11394 19.59375 145.88655 19.51273 146.64844 19.351562 C 147.41032 19.190395 148.15365 18.956122 148.87891 18.648438 L 148.87891 16.736328 C 148.16098 17.117271 147.43571 17.403279 146.70312 17.59375 C 145.97787 17.784221 145.22771 17.878906 144.45117 17.878906 C 143.11055 17.878906 142.06315 17.516271 141.30859 16.791016 C 140.56136 16.058434 140.14455 14.997374 140.05664 13.605469 L 149.35156 13.605469 L 149.35156 12.615234 C 149.35156 10.78378 148.86935 9.337634 147.90234 8.2753906 C 146.94266 7.2058214 145.63415 6.671875 143.97852 6.671875 z M 14.388672 6.96875 L 14.388672 19.275391 L 16.410156 19.275391 L 16.410156 6.96875 L 14.388672 6.96875 z M 69.201172 6.96875 L 69.201172 19.275391 L 71.222656 19.275391 L 71.222656 6.96875 L 69.201172 6.96875 z M 5.4980469 8.3632812 C 6.5676161 8.3632812 7.4075822 8.7888772 8.015625 9.6386719 C 8.6309936 10.481141 8.9375 11.645672 8.9375 13.132812 C 8.9375 14.619953 8.6309936 15.788877 8.015625 16.638672 C 7.4075822 17.481141 6.5676161 17.902344 5.4980469 17.902344 C 4.4284777 17.902344 3.5860717 17.481141 2.9707031 16.638672 C 2.3626604 15.788877 2.0585938 14.619953 2.0585938 13.132812 C 2.0585937 11.645672 2.3626604 10.481141 2.9707031 9.6386719 C 3.5860717 8.7888772 4.4284777 8.3632812 5.4980469 8.3632812 z M 94.375 8.3632812 C 95.466547 8.3632812 96.313346 8.7664258 96.914062 9.5722656 C 97.522105 10.378105 97.826172 11.513352 97.826172 12.978516 C 97.826172 14.436353 97.522105 15.56916 96.914062 16.375 C 96.313346 17.18084 95.466547 17.582031 94.375 17.582031 C 93.290779 17.582031 92.445933 17.18084 91.837891 16.375 C 91.237174 15.56916 90.935547 14.436353 90.935547 12.978516 C 90.935547 11.513352 91.237174 10.378105 91.837891 9.5722656 C 92.445933 8.7664258 93.290779 8.3632812 94.375 8.3632812 z M 129.1875 8.3632812 C 130.25707 8.3632812 131.09948 8.7888772 131.71484 9.6386719 C 132.33021 10.481141 132.63867 11.645672 132.63867 13.132812 C 132.63867 14.619953 132.33021 15.788877 131.71484 16.638672 C 131.09948 17.481141 130.25707 17.902344 129.1875 17.902344 C 128.11793 17.902344 127.27552 17.481141 126.66016 16.638672 C 126.05211 15.788877 125.74805 14.619953 125.74805 13.132812 C 125.74805 11.645672 126.05211 10.481141 126.66016 9.6386719 C 127.27552 8.7888772 128.11793 8.3632812 129.1875 8.3632812 z M 53.970703 8.3847656 C 55.047598 8.3847656 55.90123 8.8147545 56.53125 9.671875 C 57.16127 10.52167 57.476562 11.674975 57.476562 13.132812 C 57.476563 14.597976 57.16127 15.755674 56.53125 16.605469 C 55.90123 17.455263 55.047598 17.878906 53.970703 17.878906 C 52.879156 17.878906 52.018692 17.457703 51.388672 16.615234 C 50.765977 15.76544 50.453125 14.605302 50.453125 13.132812 C 50.453125 11.660323 50.768417 10.502625 51.398438 9.6601562 C 52.028458 8.8103616 52.886482 8.3847656 53.970703 8.3847656 z M 108.78125 8.3847656 C 109.85814 8.3847656 110.71178 8.8147545 111.3418 9.671875 C 111.97182 10.52167 112.28711 11.674975 112.28711 13.132812 C 112.28711 14.597976 111.97182 15.755674 111.3418 16.605469 C 110.71178 17.455263 109.85814 17.878906 108.78125 17.878906 C 107.6897 17.878906 106.82924 17.457703 106.19922 16.615234 C 105.57652 15.76544 105.26562 14.605302 105.26562 13.132812 C 105.26563 11.660323 105.58092 10.502625 106.21094 9.6601562 C 106.84096 8.8103616 107.69703 8.3847656 108.78125 8.3847656 z M 144 8.3847656 C 144.99631 8.3847656 145.79577 8.7156765 146.39648 9.375 C 147.00453 10.034323 147.31543 10.917239 147.33008 12.023438 L 140.12109 12.033203 C 140.22366 10.875724 140.61313 9.9791429 141.28711 9.3417969 C 141.96841 8.7044509 142.87182 8.3847656 144 8.3847656 z M 117.66016 16.484375 L 117.66016 19.275391 L 119.98047 19.275391 L 119.98047 16.484375 L 117.66016 16.484375 z "
     id="text3747" />
</svg>
